<svg xmlns="http://www.w3.org/2000/svg" viewBox="0 0 921 1280"><path style="fill:#fff;" d="M511.4 81.5c-.3 1.1-2.6 8.2-5.2 15.9l-4.7 13.9-14.4 4.6-14.5 4.7 12.1 10.1 12 10.2-.5 16.8c-.4 14.3-.3 16.6.9 15.7.8-.7 6.4-5 12.6-9.6l11.2-8.5 13.7 5.4c7.5 3 13.9 5.2 14.1 4.9.3-.3-1.3-7.4-3.5-15.7l-4.1-15.3 8.9-12.7c5-7 9-13 9-13.3 0-.3-4.8-.6-10.7-.7-6 0-12.8-.4-15.2-.7l-4.5-.7-8.3-13.5c-6.4-10.4-8.5-13-8.9-11.5z"/><path style="fill:#fff;" d="M528.6 104.5c.4.8 1.1 1.5 1.6 1.5.6 0 .5-.6-.2-1.5-.7-.8-1.4-1.5-1.6-1.5-.2 0-.1.7.2 1.5zM499 110c-1.3.8-1.2 1 .3 1 .9 0 1.7-.5 1.7-1 0-1.2-.1-1.2-2 0zM480.2 158c-44.4 23.2-77.2 49-86.8 68.5-11.7 23.8 4.1 39.2 49.3 47.9 7 1.3 17.9 3 24.2 3.7l11.3 1.2-.4 11.3c-.2 6.3-.2 11.4 0 11.4s4.2-3 8.9-6.7l8.5-6.6 10.1 4.1c5.6 2.3 10.2 4 10.3 3.9.2-.1-.6-3.3-1.7-7.1-1-3.8-1.6-7.2-1.3-7.5.3-.3 6.4.2 13.7 1.2 27.6 3.5 41.5 9.2 47.8 19.4 2.8 4.4 3 13.8.5 19.7-.9 2.1-1.6 4-1.6 4.3 0 1.2 9.8-6.9 16-13.2 7.1-7.4 12-15.7 12-20.7 0-14.9-23.3-25.9-65-30.8-17.3-2-16.4-1.7-14.6-4.6l1.6-2.4H501.3l-5.9-9.5c-3.2-5.2-6.1-9.5-6.4-9.5-.3 0-2 4.7-3.7 10.3l-3.3 10.4-3.2-.5c-22.5-2.8-40.4-7.3-52.4-13.2-23.2-11.3-23-27 .9-48.1 13.5-12 38.9-28.5 60.5-39.3 6.6-3.3 8.4-4.6 6.5-4.6-.5 0-6.8 3.2-14.1 7zM502 330l-3.3 10.9-10.6 3.3-10.5 3.3 7.2 6c4 3.2 6.9 6.2 6.5 6.6-.8.7-20.9 6.7-40.1 11.8-7 1.9-13.6 3.1-17.5 3.1h-6.2l-5.4-9.1c-3-4.9-5.7-9.2-6.1-9.4-.4-.2-2.2 4.4-4.1 10.4l-3.3 10.9-10.4 3.2c-5.8 1.7-10.1 3.5-9.6 4 .5.4 2.8 2.4 5.2 4.3l4.2 3.6-7.7 4.2c-16.2 8.8-45.4 29.2-39.3 27.4 1.4-.4 13.1-5.3 26-10.7 12.9-5.5 24.5-10.4 25.7-10.8l2.2-.9-.6 10.1c-.7 11.6-1.6 11.4 9.9 2.5l7.7-6 10.1 4.1c5.5 2.2 10 3.8 10 3.4 0-.3-1.4-5.5-3.1-11.4-4.3-15.4-5-14.7 25.1-23.2 6.9-2 16.6-4.9 21.5-6.6 4.9-1.6 8.9-3 8.9-3 .1 0-.1 2.9-.2 6.5-.2 3.6-.1 6.5.3 6.5s4.5-2.9 9-6.5l8.4-6.4 9.7 3.9c5.4 2.2 9.9 3.8 10.1 3.6.2-.2-.8-5-2.4-10.6-2.3-8.8-2.5-10.5-1.3-11.2 16.8-9.7 24.9-15 31.3-20.4 4.3-3.6 7.7-6.8 7.5-7-.2-.2-7.1 3-15.2 7.1s-15.2 7.5-15.8 7.5c-.5 0 0-1.2 1.2-2.8l2.2-2.7-5.4-.7c-2.9-.3-7.8-.6-10.8-.7l-5.6-.1-5.3-9c-2.9-5-5.7-9.2-6.1-9.5-.4-.2-2.2 4.5-4 10.5zM337 434.1c-9.4 7.1-15.3 14.4-17.1 21.1-1.1 3.9-1 5.2.5 9.2 2.4 6.3 10.8 13.7 21.3 18.7 8.2 3.9 28 10.9 30.8 10.9 1.1 0 1.5 1.9 1.7 7.5l.3 7.4 7.1-5.4 7.2-5.4 9.6 1.9c5.3 1.1 10.6 2.5 11.6 3 1.2.6 2 .7 2 .1 0-.5 1.5-.6 3.8-.1 2 .4 12.4 2.1 23.1 3.6l19.4 2.8-.6 7.8c-.3 4.3-.2 7.8.2 7.8.5 0 4.6-2.9 9.2-6.3l8.4-6.4 9.4 3.9c5.2 2.1 9.8 3.8 10.2 3.8.5 0 .4-1.2-.1-2.6-.6-1.4-1-2.8-1-3.1 0-.7 9 .3 32.4 3.8 10.9 1.6 20.3 2.9 20.8 2.9.6 0 .9 3.6.6 9-.1 5-.2 9 0 9s4.2-3 8.8-6.6l8.5-6.7 9.7 3.9c5.3 2.1 10 4.1 10.5 4.2.4.2.5-.8.1-2.2-.8-3.3.2-3.3 10.8 0 16.5 5.2 27.8 12.5 32 20.8 1.8 3.4 2 5.3 1.6 12.8l-.5 8.7 6.5-5.7c15.2-13.4 21.1-22.3 19.7-29.9-.9-5.4-9.2-12.8-21.3-19-11.4-6-20-9.2-36-13.4-6.5-1.7-11.9-3.3-12.1-3.5-.2-.2 1.3-2.6 3.4-5.4l3.7-5h-21.9l-5.8-9.5c-3.1-5.2-6-9.5-6.4-9.5-.3 0-2.1 4.9-4 10.9-3 9.8-3.7 11-6 11.4-2.1.5-28.4-2.1-49.9-4.9l-4.3-.5 3.6-4.9c1.9-2.6 3.5-5 3.5-5.4 0-.3-3.7-.6-8.2-.7-12.4-.1-12.5-.2-19.1-10.9-4.5-7.5-5.9-9.1-6.3-7.5-.3 1.1-2 6.2-3.7 11.4l-3.2 9.4-6.4 1.9c-6.5 2-6.5 2-19.5-.2-11.9-1.9-25.5-4.8-26.5-5.6-.2-.2 2-3.5 4.8-7.3 2.8-3.9 5.1-7.3 5.1-7.6 0-.2-4.8-.6-10.7-.7l-10.7-.3-6-9.9-6.1-9.9-3.5 11.4c-3.5 11.2-3.6 11.4-7.1 12.3-3 .7-4.6.3-12.6-3.7-13.9-7-18-13.5-17.1-27.2.2-3.6.3-6.5.2-6.5-.2 0-3.9 2.8-8.4 6.1zM546 576.1c-1.8 5.7-3.6 10.9-4.1 11.5-.5.6-5.2 2.3-10.4 3.9-5.3 1.5-9.4 3.1-9.3 3.5.2.4 3.4 3.4 7.2 6.6l7 5.8-9 2.9c-10.9 3.5-43.5 11.9-44 11.4-.3-.2.5-1.5 1.6-3 1.1-1.4 2-2.8 2-3.1 0-.3-4.8-.7-10.7-.8l-10.7-.3-5.5-9.2c-3.1-5.1-5.9-9.2-6.2-9.3-.3 0-2.1 4.8-4 10.7l-3.4 10.7-8.5 2.8c-4.7 1.4-9.4 2.9-10.4 3.2-1.7.4-1.3 1.1 2.7 4.3 2.5 2 4.5 3.9 4.3 4-.2.2-11.7 2.5-25.7 5.2s-26.7 5.2-28.3 5.7c-3.1.7-3-.1.1-3.7 1.2-1.4.9-1.7-2.4-2.3-2.1-.3-7-.6-10.9-.6h-7.1l-5.8-9.5c-3.2-5.3-5.9-9.4-6.1-9.2-.2.2-1.9 5.1-3.7 10.8l-3.2 10.4-10.4 3.4-10.4 3.4 5.3 4.7 5.2 4.6-14.8 5.3c-19.3 6.8-37.3 15.5-49.3 23.6-10.4 7-17.9 13.2-14.6 12 1.1-.3 8.5-3.2 16.5-6.2 20.6-7.9 64.1-22.3 67.3-22.3.3 0 .7 3.6.9 8.1l.3 8.1 8.6-6.6 8.5-6.6 9.9 4c5.4 2.2 10 3.9 10.1 3.7.2-.2-.8-4.5-2.2-9.6-1.4-5.1-2.4-9.4-2.2-9.6.9-.7 68.9-13.5 72-13.5.4 0 .4 3.9.1 8.7l-.6 8.8 3.4-2.6c1.9-1.4 6-4.5 9.2-6.9l5.8-4.4 10 4.1c5.9 2.4 9.9 3.6 9.9 2.9 0-.7-1.1-4.9-2.4-9.5-1.7-5.8-2.1-8.3-1.3-8.6.7-.2 9.2-2.4 18.9-4.9 9.7-2.6 23.3-6.4 30.2-8.5l12.6-3.9v5.9c0 3.2.3 5.9.6 5.9s4.2-2.9 8.7-6.4l8.2-6.4 9.9 4c5.4 2.1 10 3.7 10.2 3.6.1-.2-.8-4.1-2.2-8.8-1.3-4.6-2.4-8.9-2.4-9.5 0-.5 4.4-3.1 9.8-5.7 5.3-2.5 14-7.2 19.2-10.3 9.3-5.5 27.3-18.5 26.6-19.2-.2-.2-4.3 1.5-9.2 3.8-10.6 4.9-37.3 15.9-38.6 15.9-.5 0 .3-1.6 1.8-3.5l2.6-3.5h-8.8c-4.9 0-9.9-.3-11.1-.6-1.4-.4-4-3.5-6.9-8.3-2.6-4.2-5.3-8.4-6-9.5-1.1-1.6-1.6-.5-4.4 8.5zM260.4 714.9c.3.4-.5 1.3-1.7 1.8-1.2.6-6.8 4.2-12.3 8-8.1 5.6-10.5 6.8-12 6.1-1.1-.5-.4.4 1.5 2.1 10.5 9.3 43.3 20.9 80.8 28.7 9.8 2 18.9 4.4 20.2 5.3 2.2 1.7 2.3 2.2 2.2 13.4-.1 6.4.1 11.7.4 11.7.3 0 4.2-2.7 8.5-6s8.4-6 8.9-6c.6 0 5.2 1.6 10.1 3.6 5 2 9.3 3.5 9.5 3.2.3-.2-.5-3.7-1.6-7.7s-1.9-7.4-1.7-7.6c.3-.3 67.2 7 72.4 8l3 .5-.4 11c-.3 6.1-.1 11 .3 11s4.4-2.9 9-6.5l8.3-6.4 9.8 3.9c5.3 2.2 9.9 3.8 10.2 3.6.2-.3-.3-2.8-1.2-5.7-.8-2.9-1.4-5.5-1.2-5.6.4-.4 38.9 6.4 54.9 9.7 8 1.6 14.8 3 15.2 3 .4 0 .4 3.6.1 8-.4 4.4-.5 8-.1 8 .3 0 4.2-2.7 8.6-6.1l8.1-6.1 6 1.7c3.3.9 7.9 2.5 10.2 3.4 2.2 1 4.6 1.6 5.3 1.4 1.7-.6 19.9 6.4 27.9 10.8 17.1 9.4 23.8 20.8 19 32.4-.8 1.9-1.3 3.5-1 3.5.3 0 3.8-2.2 7.8-4.9 33.3-22.5 21.7-43-35-61.7-9-3-16.9-5.4-17.6-5.4-.7 0-1.9-.4-2.7-.9-1-.7-.3-2.3 3.3-7.2 2.5-3.5 4.6-6.7 4.6-7.1 0-.4-4.7-.8-10.5-.8h-10.4l-5.8-9.5c-3.2-5.2-6-9.5-6.3-9.5-.3 0-2 4.9-3.9 10.9l-3.4 10.9-4.5 1.3c-4.1 1.1-7.2.8-34.1-3.6-16.3-2.7-29.8-5-30-5.2-.2-.1.6-1.5 1.8-3.1l2.1-3-3.1-.6c-1.8-.3-6.6-.6-10.8-.6h-7.6l-5.9-9.7-6-9.7-3.4 10.4c-1.9 5.8-3.6 10.6-3.7 10.8-.2.2-30.5-3.2-55-6.3-6.6-.8-12.6-1.5-13.4-1.5-.8 0-1.1-.6-.7-1.5.4-1.2-.3-1.5-3.7-1.5-2.3 0-7.2-.3-10.9-.6l-6.8-.7-5.6-9.3c-3.1-5.2-5.8-9.4-6-9.4-.2 0-1.5 3.8-3 8.5-1.4 4.7-2.8 8.5-3 8.5-1.6 0-24-4.6-31.6-6.6-20.6-5.1-41.1-13.6-48.8-20.1-2.8-2.3-4.6-3-3.6-1.4zM628 860.1c-25.6 12-62.1 24.1-94.4 31.4l-2.9.6 2.6-3.5c1.5-1.9 2.7-3.7 2.7-4 0-.3-4.8-.6-10.7-.6h-10.8l-5.8-9.6c-3.3-5.2-6.1-9.4-6.3-9.1-.2.2-1.9 5.1-3.7 10.8l-3.2 10.4-10.5 3.4-10.4 3.3 4.4 3.8c4.2 3.6 4.3 3.7 1.9 4.3-7.4 1.9-83.6 11-87.2 10.5-1.8-.3-1.8-.4.3-3.1l2.1-2.7-8.3-.1c-13.5-.2-13.4-.1-20-10.9-3.2-5.2-5.8-9.2-5.8-9 0 .3-1.7 5.4-3.8 11.4l-3.7 11-9.5 2.9c-5.2 1.6-9.7 3.1-10 3.4-.3.2.3 1 1.3 1.7 2.5 1.9 2.1 2.6-1.3 2.6-3.1 0-88.5 8.6-95.9 9.6l-4.4.7 2.1-3.5c1.2-2 2.2-3.8 2.2-4.1 0-.4-4.8-.8-10.7-.9l-10.7-.3-5.5-9.2c-3.1-5.1-5.9-8.9-6.2-8.5-.4.4-2.1 5.3-3.8 10.8l-3.1 10.2-10.5 3.2-10.5 3.3 3.8 3.3c3.3 2.9 3.5 3.3 1.5 3.4-3.7 0-28.3 5.9-39.8 9.4-22.3 6.9-36.4 13.8-48 23.5-3.3 2.8-8.7 6.9-11.9 9.2C70 988.7 64 996.3 64 1003.8c0 9.8 6.4 16.3 24.5 25.2 14.1 6.8 28.2 11.5 53 17.6 17.8 4.3 56.2 11.6 78.9 15l11.7 1.8-.3 10.8c-.2 5.9-.1 10.8.2 10.8.3 0 4.3-2.9 9-6.4l8.4-6.4 5.1 2c2.7 1.1 7.2 2.9 9.8 3.9 2.6 1 4.9 1.9 5.1 1.9.2 0-.2-2.5-1.1-5.6-.8-3.1-1.3-5.8-1.1-5.9.2-.2 7.3.5 15.8 1.6s36.9 4.2 63 6.9c26.1 2.8 49 5.3 50.9 5.6l3.3.5-.7 10.1c-.6 8.4-.4 9.9.7 9.1.8-.4 4.9-3.5 9.2-6.7l7.7-6 10.1 4.1 10 4.1-.6-3.1c-.3-1.8-.9-4.5-1.2-6-.6-2.7-.6-2.8 3.2-2.2 3.1.4 67.1 6.5 109.4 10.3l7.5.7-.2 10.3c-.1 5.6.2 10.2.5 10.2.4 0 4.4-2.9 9-6.4l8.4-6.4 9.5 3.9c5.3 2.1 9.9 3.7 10.1 3.4.3-.3-.2-3-1-6-1.8-6.6-4.4-6.2 22.8-3.5 45.2 4.6 99.2 12.1 105.8 14.6 1.4.5 1.5 2.3.9 12.7l-.6 12.2 3.4-2.6c1.9-1.4 6-4.5 9.2-6.9l5.8-4.4 10.1 4.1 10 4.1-.7-3.1c-.4-1.8-.9-4.2-1.2-5.4-.3-1.3-.1-2.3.5-2.3 2.3 0 22.1 7.4 27.6 10.3 8.4 4.5 16.3 11.9 17.8 16.9 1.9 6.5-.7 13.8-8.1 22.2-1.9 2.2-1.2 1.8 2.6-1.3 20.3-16.6 23-31.3 8.1-44.6-6-5.3-24.9-14.9-37.3-18.9-4.4-1.5-8.6-2.9-9.3-3.1-.9-.3 0-2.2 2.8-5.9 2.2-3.1 4-5.7 4-6 0-.3-4.8-.7-10.7-.8l-10.7-.3-5.5-9.2c-3.1-5.1-5.8-9.2-6.2-9.3-.3 0-2.1 4.8-3.9 10.6-1.9 5.9-4 10.8-4.6 11.1-.6.2-9.8-1.2-20.5-3.2-22.2-4.1-58.9-9.4-85.9-12.5-10.2-1.2-19.3-2.5-20.3-2.8-1.7-.7-1.7-.9.3-3.5 1.2-1.6 2-3 1.8-3.2-.2-.2-5.1-.8-10.8-1.2l-10.5-.8-5.5-9.2c-3-5.1-5.7-9.2-6-9.3-.3 0-2 5-3.9 11-3 9.5-3.8 11.1-5.9 11.7-1.3.3-14.8-.4-30-1.5-15.3-1.2-41.4-3.1-58.2-4.3-16.8-1.2-30.7-2.3-30.9-2.5-.2-.2 1-2.4 2.7-4.8 1.8-2.4 3.2-4.7 3.2-5 0-.3-4.7-.6-10.4-.6h-10.4l-5.9-9.5c-3.2-5.2-6.1-9.5-6.4-9.5-.3 0-2.1 4.8-4 10.7l-3.4 10.7-5.5 1.9c-4.6 1.5-7.3 1.8-16 1.3-16.6-.8-105.2-11.1-111.3-12.9-.5-.1.6-2.1 2.2-4.5 1.7-2.3 3.1-4.6 3.1-5.2 0-.6-4.1-1-10.4-1h-10.4l-5.9-9.5c-3.2-5.2-6.1-9.1-6.5-8.7-.3.4-2.1 5.3-3.8 11-2.7 8.8-3.5 10.3-5.6 10.8-3.1.8-12.5-.7-36.4-5.6-61.8-12.8-99.2-28.3-106.9-44.3-2.5-5.1-2.7-11.4-.6-14.4 2.4-3.5 38.9-14.7 68.2-20.9 10.6-2.2 34.4-6.4 36.7-6.4.5 0 .7 4 .4 9-.2 4.9-.3 9 0 9 .2 0 3.8-2.6 8-5.8 4.2-3.2 8.2-6.1 8.8-6.5.5-.3 5.4 1.2 10.8 3.4 5.4 2.1 9.9 3.9 10.1 3.9.2 0-.8-3.9-2.1-8.7-1.3-4.8-2.3-8.8-2.1-8.9.6-.5 44.5-4.7 76.2-7.4 19.8-1.6 38.4-3.1 41.3-3.4l5.3-.5-.3 9c-.2 4.9 0 8.9.3 8.9s4.4-2.9 9-6.3l8.4-6.4 9.4 3.9c5.2 2.1 9.8 3.7 10.2 3.6.3-.2-.4-3.8-1.6-8.1-1.2-4.2-2-7.7-1.6-7.7 6.4 0 73.1-9.2 94.1-13 6.2-1.1 11.5-2 11.6-2 .2 0 .4 3.3.6 7.4l.3 7.5 8.6-6.5 8.7-6.5 9.8 4c5.5 2.1 10 3.8 10.2 3.6.1-.1-.6-3.6-1.8-7.6-1.1-4-2-7.9-2-8.5 0-.6 2.5-1.7 5.7-2.3 10-2.3 37.4-11.1 50.3-16.2 14.8-5.9 26.5-12 37.5-19.5 8.4-5.6 18.7-14.4 17-14.3-.5 0-3.9 1.4-7.5 3z"/></svg>
